<svg viewBox="0 0 24 24" fill="none" xmlns="http://www.w3.org/2000/svg">
<g clip-path="url(#clip0_345_20)">
<path d="M18.8909 12.6847C18.8793 10.7135 19.7724 9.22789 21.5759 8.13247C20.5672 6.68733 19.0411 5.8925 17.0295 5.73931C15.1248 5.58902 13.0409 6.84918 12.2779 6.84918C11.4715 6.84918 9.62748 5.79134 8.17655 5.79134C5.18221 5.83758 2 8.17872 2 12.9419C2 14.3495 2.25724 15.8033 2.77171 17.3005C3.4596 19.2717 5.93946 24.1013 8.52627 24.0233C9.87893 23.9915 10.8356 23.0637 12.5958 23.0637C14.304 23.0637 15.1884 24.0233 16.6971 24.0233C19.3071 23.9857 21.5499 19.5954 22.2031 17.6184C18.703 15.968 18.8909 12.7858 18.8909 12.6847ZM15.8532 3.86929C17.3185 2.12934 17.1856 0.545461 17.1422 -0.0239258C15.8474 0.0512218 14.3502 0.857613 13.4976 1.84898C12.5582 2.91261 12.0062 4.22769 12.1247 5.71041C13.5236 5.81735 14.8011 5.09767 15.8532 3.86929Z" fill="#F4EEEA"/>
</g>
<defs>
<clipPath id="clip0_345_20">
<rect width="24" height="24" fill="white"/>
</clipPath>
</defs>
</svg>
