<svg width="24" height="24" viewBox="0 0 24 24" fill="none" xmlns="http://www.w3.org/2000/svg">
<path d="M12 2.2C15.2 2.2 15.6 2.2 16.9 2.30001C20.2 2.4 21.7001 4.00001 21.8 7.20001C21.9 8.50004 21.9 8.80003 21.9 12C21.9 15.2001 21.9 15.6 21.8 16.8001C21.7001 20 20.1001 21.6 16.9 21.7C15.6 21.8 15.3 21.8 12 21.8C8.80005 21.8 8.4 21.8 7.2 21.7C3.90001 21.6 2.4 20 2.3 16.8001C2.20001 15.5 2.20001 15.2001 2.20001 12C2.20001 8.80003 2.20001 8.39998 2.3 7.20001C2.4 4.00001 4 2.4 7.2 2.30001C8.4 2.2 8.80005 2.2 12 2.2ZM12 0C8.69999 0 8.30001 2.60653e-08 7.10001 0.1C2.7 0.3 0.3 2.7 0.1 7.10001C0 8.30001 0 8.69997 0 12C0 15.3 0 15.7 0.1 16.9C0.3 21.3 2.7 23.7 7.10001 23.9C8.30001 24 8.69999 24 12 24C15.3 24 15.7 24 16.9 23.9C21.3 23.7 23.7 21.3 23.9001 16.9C24 15.7 24 15.3 24 12C24 8.69997 24 8.30001 23.9001 7.10001C23.7 2.7 21.3 0.3 16.9 0.1C15.7 2.60653e-08 15.3 0 12 0ZM12 5.80001C8.60002 5.80001 5.8 8.6 5.8 12C5.8 15.4 8.60002 18.2 12 18.2C15.4 18.2 18.2001 15.4 18.2001 12C18.2001 8.6 15.4 5.80001 12 5.80001ZM12 16.0001C9.79998 16.0001 8.00001 14.2 8.00001 12C8.00001 9.80005 9.79998 8 12 8C14.2 8 16 9.80005 16 12C16 14.2 14.2 16.0001 12 16.0001ZM18.4 4.2C17.6 4.2 17 4.8 17 5.6C17 6.40001 17.6 7.00001 18.4 7.00001C19.2 7.00001 19.8 6.40001 19.8 5.6C19.8 4.8 19.2 4.2 18.4 4.2Z" fill="#9D9D9D"/>
</svg>
