<svg width="24" height="24" viewBox="0 0 24 24" fill="none" xmlns="http://www.w3.org/2000/svg">
<path d="M12 0C5.37188 0 0 5.37187 0 12C0 17.0859 3.16406 21.4266 7.62656 23.175C7.52344 22.2234 7.425 20.7703 7.66875 19.7344C7.8891 18.7969 9.07502 13.7718 9.07502 13.7718C9.07502 13.7718 8.71406 13.0547 8.71406 11.9906C8.71406 10.3218 9.67966 9.07504 10.8844 9.07504C11.9062 9.07504 12.4031 9.84376 12.4031 10.7672C12.4031 11.7984 11.7469 13.3359 11.4093 14.761C11.1281 15.9562 12.0093 16.9313 13.1859 16.9313C15.3188 16.9313 16.9593 14.6813 16.9593 11.4375C16.9593 8.56408 14.8969 6.55313 11.9485 6.55313C8.5359 6.55313 6.52968 9.11248 6.52968 11.761C6.52968 12.7922 6.92812 13.8984 7.425 14.4984C7.52344 14.6156 7.5375 14.7234 7.50937 14.8406C7.42032 15.2203 7.21406 16.0359 7.17656 16.2C7.125 16.4203 7.00312 16.4672 6.77344 16.3594C5.27344 15.661 4.33594 13.4718 4.33594 11.7094C4.33594 7.92187 7.0875 4.44844 12.2625 4.44844C16.425 4.44844 19.6593 7.41562 19.6593 11.3813C19.6593 15.5156 17.0531 18.8438 13.4344 18.8438C12.2203 18.8438 11.0765 18.211 10.6828 17.4656C10.6828 17.4656 10.0828 19.7578 9.9375 20.3203C9.66566 21.361 8.93438 22.6687 8.44686 23.4656C9.5719 23.8125 10.7625 24 12 24C18.6281 24 24 18.6282 24 12C24 5.37187 18.6281 0 12 0Z" fill="#9D9D9D"/>
</svg>
