<svg width="116" height="24" viewBox="0 0 116 24" fill="none" xmlns="http://www.w3.org/2000/svg">
<path fill-rule="evenodd" clip-rule="evenodd" d="M3.03108 9.57272C2.96302 4.47554 7.01175 0.828137 12.0742 1.42597L21.2404 2.50844L21.4869 20.9668L12.3207 19.8843C7.25821 19.2865 3.09914 14.6699 3.03108 9.57272ZM2.78388 5.80737C1.87376 7.14118 1.35705 8.79896 1.38173 10.6474C1.44979 15.7445 5.60886 20.3612 10.6713 20.9591L18.5963 21.895L19.8375 22.0415L20.506 22.1205L18.6169 23.4332L9.45053 22.3507C4.38813 21.7528 0.229059 17.1361 0.161002 12.039C0.126798 9.47736 1.13239 7.28185 2.78388 5.80737ZM4.94453 9.61268C4.88896 5.45072 8.19488 2.4725 12.3285 2.96065L19.8131 3.84452L20.0143 18.9164L12.5297 18.0325C8.39612 17.5443 5.00011 13.7747 4.94453 9.61268Z" fill="#F4EEEA"/>
<path d="M36.4518 19.6123C35.1811 19.6123 34.0766 19.3391 33.1384 18.7929C32.2121 18.2348 31.4876 17.4569 30.9652 16.4593C30.4545 15.4498 30.1992 14.2623 30.1992 12.8966C30.1992 11.5427 30.4604 10.3611 30.983 9.35173C31.5174 8.34228 32.2655 7.55848 33.2275 7.00033C34.1894 6.44217 35.2998 6.16309 36.5586 6.16309C37.5918 6.16309 38.5181 6.3531 39.3375 6.73312C40.1569 7.11314 40.8339 7.64755 41.3683 8.33634C41.9026 9.01325 42.2411 9.82083 42.3836 10.759H39.9788C39.7532 9.99889 39.3316 9.41108 38.714 8.99544C38.1084 8.56791 37.3662 8.35416 36.4874 8.35416C35.7035 8.35416 35.0148 8.53823 34.421 8.90637C33.8391 9.27456 33.3878 9.79702 33.0671 10.474C32.7465 11.1509 32.5862 11.9584 32.5862 12.8966C32.5862 13.7992 32.7465 14.5948 33.0671 15.2836C33.3878 15.9605 33.8391 16.489 34.421 16.869C35.0148 17.2372 35.7035 17.4213 36.4874 17.4213C37.3781 17.4213 38.138 17.2075 38.7675 16.78C39.4088 16.3524 39.8363 15.7764 40.0501 15.052H42.4193C42.253 15.9546 41.8908 16.7503 41.3326 17.4391C40.7864 18.1279 40.0916 18.6622 39.2484 19.0423C38.4172 19.4223 37.4849 19.6123 36.4518 19.6123ZM42.8252 14.9808C42.8252 14.0663 43.0271 13.2647 43.4309 12.5759C43.8346 11.8753 44.3928 11.329 45.1053 10.9371C45.8179 10.5453 46.6255 10.3493 47.528 10.3493C48.4424 10.3493 49.25 10.5453 49.9507 10.9371C50.6632 11.329 51.2214 11.8753 51.6251 12.5759C52.0289 13.2647 52.2308 14.0663 52.2308 14.9808C52.2308 15.8952 52.0289 16.7027 51.6251 17.4034C51.2214 18.0922 50.6632 18.6325 49.9507 19.0245C49.25 19.4164 48.4424 19.6123 47.528 19.6123C46.6255 19.6123 45.8179 19.4164 45.1053 19.0245C44.3928 18.6325 43.8346 18.0922 43.4309 17.4034C43.0271 16.7027 42.8252 15.8952 42.8252 14.9808ZM44.9984 14.9808C44.9984 15.5152 45.1053 15.9843 45.3191 16.3881C45.5447 16.7918 45.8417 17.1065 46.2098 17.3322C46.5898 17.5578 47.0292 17.6707 47.528 17.6707C48.0268 17.6707 48.4662 17.5578 48.8462 17.3322C49.2262 17.1065 49.5231 16.7918 49.7369 16.3881C49.9507 15.9843 50.0576 15.5152 50.0576 14.9808C50.0576 14.4345 49.9507 13.9654 49.7369 13.5735C49.5231 13.1698 49.2262 12.8551 48.8462 12.6294C48.4662 12.4038 48.0268 12.291 47.528 12.291C47.0292 12.291 46.5898 12.4038 46.2098 12.6294C45.8417 12.8551 45.5447 13.1698 45.3191 13.5735C45.1053 13.9654 44.9984 14.4345 44.9984 14.9808ZM55.325 19.3986H53.1518V10.5986H55.1648L55.3428 11.7387C55.616 11.2993 56.002 10.9549 56.5007 10.7055C57.0114 10.4562 57.5636 10.3315 58.1574 10.3315C59.2618 10.3315 60.0932 10.6581 60.6512 11.3112C61.2213 11.9644 61.5063 12.8551 61.5063 13.9833V19.3986H59.3331V14.4998C59.3331 13.7636 59.1668 13.2173 58.8343 12.861C58.5018 12.4929 58.0505 12.3088 57.4805 12.3088C56.8036 12.3088 56.2751 12.5225 55.8951 12.9501C55.5151 13.3775 55.325 13.9476 55.325 14.6602V19.3986ZM61.9671 10.5986H67.5249V12.4156H61.9671V10.5986ZM65.8327 19.3986H63.6594V7.85537H65.8327V19.3986ZM68.0922 19.3986V10.5986H70.2655V19.3986H68.0922ZM69.161 8.83512C68.7929 8.83512 68.4782 8.71043 68.2169 8.46103C67.9675 8.19977 67.8428 7.88506 67.8428 7.51692C67.8428 7.14877 67.9675 6.84001 68.2169 6.59061C68.4782 6.34122 68.7929 6.21653 69.161 6.21653C69.5291 6.21653 69.8379 6.34122 70.0873 6.59061C70.3485 6.84001 70.4792 7.14877 70.4792 7.51692C70.4792 7.88506 70.3485 8.19977 70.0873 8.46103C69.8379 8.71043 69.5291 8.83512 69.161 8.83512ZM73.8824 19.3986H71.7092V10.5986H73.7221L73.9003 11.7387C74.1734 11.2993 74.5593 10.9549 75.0582 10.7055C75.5688 10.4562 76.121 10.3315 76.7148 10.3315C77.8192 10.3315 78.6505 10.6581 79.2087 11.3112C79.7787 11.9644 80.0637 12.8551 80.0637 13.9833V19.3986H77.8904V14.4998C77.8904 13.7636 77.7242 13.2173 77.3917 12.861C77.0592 12.4929 76.6079 12.3088 76.0378 12.3088C75.3609 12.3088 74.8325 12.5225 74.4524 12.9501C74.0724 13.3775 73.8824 13.9476 73.8824 14.6602V19.3986ZM87.3649 10.5986H89.5382V19.3986H87.5252L87.3649 18.2229C87.1037 18.6385 86.7117 18.9769 86.1892 19.2382C85.6667 19.4995 85.1085 19.6301 84.5147 19.6301C83.5053 19.6301 82.7155 19.3095 82.1455 18.6682C81.5756 18.0269 81.2905 17.1718 81.2905 16.103V10.5986H83.4637V15.337C83.4637 16.1684 83.624 16.7681 83.9447 17.1362C84.2654 17.5043 84.7285 17.6885 85.3341 17.6885C86.0229 17.6885 86.5336 17.4865 86.8662 17.0828C87.1987 16.6671 87.3649 16.0437 87.3649 15.2123V10.5986ZM96.9489 10.5986H99.1219V19.3986H97.1086L96.9489 18.2229C96.6877 18.6385 96.2954 18.9769 95.7729 19.2382C95.2505 19.4995 94.692 19.6301 94.0985 19.6301C93.0896 19.6301 92.2994 19.3095 91.7294 18.6682C91.1593 18.0269 90.8744 17.1718 90.8744 16.103V10.5986H93.048V15.337C93.048 16.1684 93.2077 16.7681 93.5289 17.1362C93.8492 17.5043 94.3126 17.6885 94.9182 17.6885C95.6068 17.6885 96.1172 17.4865 96.4495 17.0828C96.7828 16.6671 96.9489 16.0437 96.9489 15.2123V10.5986ZM102.738 19.3986H100.565V10.5986H102.56L102.827 12.1663L102.578 11.9525C102.756 11.5249 103.083 11.1509 103.557 10.8302C104.033 10.4977 104.626 10.3315 105.339 10.3315C106.111 10.3315 106.74 10.5334 107.227 10.9371C107.726 11.3409 108.07 11.8753 108.26 12.5403H107.904C108.035 11.8753 108.367 11.3409 108.902 10.9371C109.448 10.5334 110.107 10.3315 110.879 10.3315C111.948 10.3315 112.768 10.6342 113.337 11.24C113.908 11.8337 114.192 12.6353 114.192 13.6448V19.3986H112.037V14.2148C112.037 13.5854 111.877 13.1104 111.556 12.7897C111.247 12.4572 110.832 12.291 110.309 12.291C109.976 12.291 109.668 12.3682 109.383 12.5225C109.11 12.6769 108.89 12.9085 108.724 13.2173C108.558 13.526 108.474 13.9238 108.474 14.4107V19.3986H106.301V14.197C106.301 13.5794 106.146 13.1104 105.838 12.7897C105.529 12.469 105.119 12.3088 104.609 12.3088C104.264 12.3088 103.95 12.386 103.664 12.5403C103.38 12.6828 103.154 12.9144 102.988 13.235C102.822 13.5438 102.738 13.9357 102.738 14.4107V19.3986Z" fill="#F4EEEA"/>
</svg>
